<svg width="20" height="16" viewBox="0 0 20 16" fill="none" xmlns="http://www.w3.org/2000/svg">
<path d="M18.8909 0.508406C18.0904 1.07307 17.204 1.50495 16.266 1.78741C15.7625 1.20852 15.0934 0.798223 14.3492 0.612002C13.6049 0.425781 12.8215 0.472624 12.1047 0.746195C11.388 1.01977 10.7725 1.50686 10.3416 2.14161C9.91071 2.77636 9.68515 3.52813 9.69544 4.29525V5.1312C8.22637 5.1693 6.77068 4.84348 5.45802 4.18277C4.14536 3.52207 3.01647 2.54698 2.1719 1.34435C2.1719 1.34435 -1.1719 8.86789 6.35164 12.2117C4.63003 13.3803 2.57914 13.9663 0.5 13.8836C8.02354 18.0633 17.219 13.8836 17.219 4.27018C17.2182 4.03733 17.1958 3.80505 17.1521 3.57634C18.0053 2.73495 18.6073 1.67264 18.8909 0.508406Z" stroke="white" stroke-linecap="round" stroke-linejoin="round"/>
</svg>
