<svg width="14" height="17" viewBox="0 0 14 17" fill="none" xmlns="http://www.w3.org/2000/svg">
<path d="M13.5 7C13.5 12.0556 7 16.3889 7 16.3889C7 16.3889 0.5 12.0556 0.5 7C0.5 5.27609 1.18482 3.62279 2.40381 2.40381C3.62279 1.18482 5.27609 0.5 7 0.5C8.72391 0.5 10.3772 1.18482 11.5962 2.40381C12.8152 3.62279 13.5 5.27609 13.5 7Z" stroke="white" stroke-linecap="round" stroke-linejoin="round"/>
<path d="M7.00016 9.16683C8.19678 9.16683 9.16683 8.19678 9.16683 7.00016C9.16683 5.80355 8.19678 4.8335 7.00016 4.8335C5.80355 4.8335 4.8335 5.80355 4.8335 7.00016C4.8335 8.19678 5.80355 9.16683 7.00016 9.16683Z" stroke="white" stroke-linecap="round" stroke-linejoin="round"/>
</svg>
